# xmcd
#
# Track frame offsets: 
#        150
#        4288
#        17793
#        38297
#        55196
#        67620
#        92520
#        129596
#        145054
#        159137
#        181001
#        196323
#
# Disc length: 2665 seconds
#
# Revision: 0
# Processed by: cddbd v1.5.2PL0 Copyright (c) Steve Scherf et al.
# Submitted via: ExactAudioCopy v0.95b3
#
DISCID=840a670c
DTITLE=Jimi Hendrix  - Moonbeams and Fairytales - Disc 18
DYEAR=1900
DGENRE=
TTITLE0=Interview (Brian Matthew)
TTITLE1=Little Miss Lover
TTITLE2=Driving South
TTITLE3=The Burning of the Midnight Lamp
TTITLE4=Hound Dog
TTITLE5=Catfish Blues
TTITLE6=Ain't Too Proud To Beg
TTITLE7=Ain't Too Proud To Beg
TTITLE8=Ain't Too Proud To Beg
TTITLE9=Driving South
TTITLE10=Driving South
TTITLE11=Little Miss Lover
EXTD=
EXTT0=
EXTT1=
EXTT2=
EXTT3=
EXTT4=
EXTT5=
EXTT6=
EXTT7=
EXTT8=
EXTT9=
EXTT10=
EXTT11=
PLAYORDER=
